<svg xmlns="http://www.w3.org/2000/svg" viewBox="0 0 1175.59 150.43"><defs><style>.cls-1{fill:#949ca1;}.cls-2{fill:#026cb6;}</style></defs><title>Artboard 1</title><g id="Layer_2" data-name="Layer 2"><polygon class="cls-1" points="1024.38 75.19 1099.49 0.01 1024.38 0.01 1024.38 75.19"/></g><g id="Layer_3" data-name="Layer 3"><rect class="cls-2" x="1108.38" width="67.21" height="67.28"/></g><g id="Layer_4" data-name="Layer 4"><rect class="cls-2" x="1108.38" y="83.15" width="67.21" height="67.28"/></g><g id="Layer_5" data-name="Layer 5"><rect class="cls-2" x="1024.47" y="83.15" width="67.22" height="67.28"/></g><g id="Layer_6" data-name="Layer 6"><path class="cls-1" d="M63.7,109.76H4.34L0,90.84,66.65,13.6H89.22V88.06h16.31v21.7H89.22V136H63.7Zm0-21.7V50.22L31.42,88.06Z"/></g><g id="Layer_7" data-name="Layer 7"><path class="cls-1" d="M142.67,27.14H101.88V14.46h95.47V27.14H156.56V136H142.67Z"/></g><g id="Layer_8" data-name="Layer 8"><path class="cls-1" d="M205.67,14.46h13.71v54h70.13v-54h13.71V136H289.51V81.29H219.38V136H205.67Z"/></g><g id="Layer_9" data-name="Layer 9"><path class="cls-2" d="M329.6,118.27l8.5-10.07c12.67,11.45,24.82,17.18,41.66,17.18,16.32,0,27.08-8.68,27.08-20.66v-.34c0-11.28-6.08-17.71-31.59-23.09-27.95-6.07-40.79-15.1-40.79-35.06v-.35c0-19.09,16.83-33.15,39.92-33.15,17.7,0,30.38,5,42.7,14.93l-8,10.58C397.81,29,386.53,25.05,374,25.05c-15.79,0-25.86,8.68-25.86,19.62V45c0,11.46,6.25,17.88,33,23.61,27.08,5.91,39.57,15.8,39.57,34.37v.35c0,20.82-17.35,34.37-41.48,34.37C360,137.71,344.18,131.28,329.6,118.27Z"/></g><g id="Layer_10" data-name="Layer 10"><path class="cls-2" d="M425.92,75.56v-.34c0-33.5,25.17-62.84,62.14-62.84s61.8,29,61.8,62.49c.17.17.17.17,0,.35,0,33.5-25.17,62.83-62.14,62.83S425.92,109.06,425.92,75.56Zm109.71,0v-.34c0-27.6-20.14-50.17-47.91-50.17s-47.56,22.22-47.56,49.82v.35c0,27.6,20.13,50.16,47.9,50.16S535.63,103.16,535.63,75.56Z"/></g><g id="Layer_11" data-name="Layer 11"><path class="cls-2" d="M559.57,85.11V14.46h13.71V84.25c0,26.2,13.89,41,37.14,41,22.4,0,36.63-13.54,36.63-40.1V14.46h13.71V84.07c0,35.41-20.31,53.81-50.68,53.81C580.05,137.88,559.57,119.48,559.57,85.11Z"/></g><g id="Layer_12" data-name="Layer 12"><path class="cls-2" d="M675.85,14.46H728.1C743,14.46,755,19,762.64,26.61c5.9,5.91,9.38,14.41,9.38,24v.35c0,20.13-13.89,31.93-33,35.4L776.36,136H759.52L724.28,88.76H689.57V136H675.85Zm51,62c18.22,0,31.24-9.37,31.24-25v-.35c0-14.93-11.46-24-31.07-24H689.57V76.43Z"/></g><g id="Layer_13" data-name="Layer 13"><path class="cls-2" d="M778.6,75.56v-.34c0-34.37,25.69-62.84,61.45-62.84,22,0,35.23,7.81,47.38,19.27l-9.37,10.07c-10.24-9.72-21.7-16.67-38.19-16.67-26.9,0-47,21.87-47,49.82v.35c0,28.12,20.31,50.16,47,50.16,16.67,0,27.6-6.42,39.23-17.53l9,8.85c-12.67,12.85-26.56,21.35-48.6,21.35C804.46,138.05,778.6,110.45,778.6,75.56Z"/></g><g id="Layer_14" data-name="Layer 14"><path class="cls-2" d="M894.72,14.46h87.83V27H908.43V68.45h66.31V81H908.43v42.52h75V136H894.72Z"/></g></svg>